# xmcd
#
# Track frame offsets:
#	150
#	12967
#	23922
#	36277
#	48565
#	61617
#	72802
#	89255
#	104455
#	114612
#	123360
#	137950
#	153267
#	169075
#	181362
#
# Disc length: 2805
#
# Revision: 1
# Processed by: cddbd v1.5.1PL0 Copyright (c) Steve Scherf et al.
# Submitted via: dBpowerAMP V4.0
# Normalized: r0:TDELIM( - ),TSWAP
#
DISCID=c60af30f
DTITLE=Various Artist - Summertime
DYEAR=1900
DGENRE=Blues
TTITLE0=Ray Charles - Unchain my heart
TTITLE1=Aretha Franklin - Respect
TTITLE2=Shirley Bassey - I am what I am
TTITLE3=Nina Simone - Don't let me be misunderstood
TTITLE4=Billie Holiday - Summertime
TTITLE5=Tina Turner - Soul deep
TTITLE6=Ray Charles - Gorgia on my mind
TTITLE7=Shirley Bassey - Yesterday
TTITLE8=Aretha Franklin - Think
TTITLE9=Ray Charles - Hit the road Jack
TTITLE10=Ella Fitzgerald - If you ever should leave
TTITLE11=Tina Turner - If this was our last time
TTITLE12=Shirley Bassey - Memory
TTITLE13=Aretha Franklin - Chain of fools
TTITLE14=Ray Charles - What I say
EXTD=Summertime
EXTT0=
EXTT1=
EXTT2=
EXTT3=
EXTT4=
EXTT5=
EXTT6=
EXTT7=
EXTT8=
EXTT9=
EXTT10=
EXTT11=
EXTT12=
EXTT13=
EXTT14=
PLAYORDER=
